%TF.GenerationSoftware,KiCad,Pcbnew,10.0.5*%
%TF.CreationDate,2026-09-09T21:09:36-04:00*%
%TF.ProjectId,TrailerMonitor,54726169-6c65-4724-9d6f-6e69746f722e,rev?*%
%TF.SameCoordinates,Original*%
%TF.FileFunction,Soldermask,Top*%
%TF.FilePolarity,Negative*%
%FSLAX46Y46*%
G04 Gerber Fmt 4.6, Leading zero omitted, Abs format (unit mm)*
G04 Created by KiCad (PCBNEW 10.0.5) date 2026-09-09 21:09:36*
%MOMM*%
%LPD*%
G01*
G04 APERTURE LIST*
G04 Aperture macros list*
%AMRoundRect*
0 Rectangle with rounded corners*
0 $1 Rounding radius*
0 $2 $3 $4 $5 $6 $7 $8 $9 X,Y pos of 4 corners*
0 Add a 4 corners polygon primitive as box body*
4,1,4,$2,$3,$4,$5,$6,$7,$8,$9,$2,$3,0*
0 Add four circle primitives for the rounded corners*
1,1,$1+$1,$2,$3*
1,1,$1+$1,$4,$5*
1,1,$1+$1,$6,$7*
1,1,$1+$1,$8,$9*
0 Add four rect primitives between the rounded corners*
20,1,$1+$1,$2,$3,$4,$5,0*
20,1,$1+$1,$4,$5,$6,$7,0*
20,1,$1+$1,$6,$7,$8,$9,0*
20,1,$1+$1,$8,$9,$2,$3,0*%
%AMFreePoly0*
4,1,37,0.603843,0.796157,0.639018,0.796157,0.711114,0.766294,0.766294,0.711114,0.796157,0.639018,0.796157,0.603843,0.800000,0.600000,0.800000,-0.600000,0.796157,-0.603843,0.796157,-0.639018,0.766294,-0.711114,0.711114,-0.766294,0.639018,-0.796157,0.603843,-0.796157,0.600000,-0.800000,0.000000,-0.800000,0.000000,-0.796148,-0.078414,-0.796148,-0.232228,-0.765552,-0.377117,-0.705537,
-0.507515,-0.618408,-0.618408,-0.507515,-0.705537,-0.377117,-0.765552,-0.232228,-0.796148,-0.078414,-0.796148,0.078414,-0.765552,0.232228,-0.705537,0.377117,-0.618408,0.507515,-0.507515,0.618408,-0.377117,0.705537,-0.232228,0.765552,-0.078414,0.796148,0.000000,0.796148,0.000000,0.800000,0.600000,0.800000,0.603843,0.796157,0.603843,0.796157,$1*%
%AMFreePoly1*
4,1,37,0.000000,0.796148,0.078414,0.796148,0.232228,0.765552,0.377117,0.705537,0.507515,0.618408,0.618408,0.507515,0.705537,0.377117,0.765552,0.232228,0.796148,0.078414,0.796148,-0.078414,0.765552,-0.232228,0.705537,-0.377117,0.618408,-0.507515,0.507515,-0.618408,0.377117,-0.705537,0.232228,-0.765552,0.078414,-0.796148,0.000000,-0.796148,0.000000,-0.800000,-0.600000,-0.800000,
-0.603843,-0.796157,-0.639018,-0.796157,-0.711114,-0.766294,-0.766294,-0.711114,-0.796157,-0.639018,-0.796157,-0.603843,-0.800000,-0.600000,-0.800000,0.600000,-0.796157,0.603843,-0.796157,0.639018,-0.766294,0.711114,-0.711114,0.766294,-0.639018,0.796157,-0.603843,0.796157,-0.600000,0.800000,0.000000,0.800000,0.000000,0.796148,0.000000,0.796148,$1*%
G04 Aperture macros list end*
%ADD10RoundRect,0.250000X-0.250000X-0.475000X0.250000X-0.475000X0.250000X0.475000X-0.250000X0.475000X0*%
%ADD11RoundRect,0.250000X-0.845000X0.620000X-0.845000X-0.620000X0.845000X-0.620000X0.845000X0.620000X0*%
%ADD12O,2.190000X1.740000*%
%ADD13RoundRect,0.250000X0.262500X0.450000X-0.262500X0.450000X-0.262500X-0.450000X0.262500X-0.450000X0*%
%ADD14C,0.800000*%
%ADD15C,6.400000*%
%ADD16RoundRect,0.178250X-0.513750X-0.228750X0.513750X-0.228750X0.513750X0.228750X-0.513750X0.228750X0*%
%ADD17R,0.558800X0.977900*%
%ADD18RoundRect,0.218750X0.218750X0.381250X-0.218750X0.381250X-0.218750X-0.381250X0.218750X-0.381250X0*%
%ADD19R,1.460500X0.533400*%
%ADD20RoundRect,0.250000X-0.262500X-0.450000X0.262500X-0.450000X0.262500X0.450000X-0.262500X0.450000X0*%
%ADD21RoundRect,0.250000X-0.475000X0.250000X-0.475000X-0.250000X0.475000X-0.250000X0.475000X0.250000X0*%
%ADD22RoundRect,0.200000X-0.600000X-0.600000X0.600000X-0.600000X0.600000X0.600000X-0.600000X0.600000X0*%
%ADD23C,1.600000*%
%ADD24FreePoly0,0.000000*%
%ADD25FreePoly1,0.000000*%
G04 APERTURE END LIST*
D10*
%TO.C,C4*%
X167575000Y-80625000D03*
X169475000Y-80625000D03*
%TD*%
%TO.C,C1*%
X173175000Y-81125000D03*
X175075000Y-81125000D03*
%TD*%
D11*
%TO.C,J1*%
X187600000Y-87640000D03*
D12*
X187600000Y-90180000D03*
%TD*%
D11*
%TO.C,J3*%
X187600000Y-101920000D03*
D12*
X187600000Y-104460000D03*
%TD*%
D10*
%TO.C,C2*%
X173175000Y-83225000D03*
X175075000Y-83225000D03*
%TD*%
D11*
%TO.C,J2*%
X187600000Y-94780000D03*
D12*
X187600000Y-97320000D03*
%TD*%
D13*
%TO.C,R1*%
X177125000Y-89900000D03*
X175300000Y-89900000D03*
%TD*%
%TO.C,R4*%
X182550000Y-111600000D03*
X180725000Y-111600000D03*
%TD*%
D14*
%TO.C,H1*%
X130193275Y-78381854D03*
X130896219Y-76684798D03*
X130896219Y-80078910D03*
X132593275Y-75981854D03*
D15*
X132593275Y-78381854D03*
D14*
X132593275Y-80781854D03*
X134290331Y-76684798D03*
X134290331Y-80078910D03*
X134993275Y-78381854D03*
%TD*%
D16*
%TO.C,Q1*%
X163725000Y-75990000D03*
X163725000Y-77820000D03*
X165775000Y-76905000D03*
%TD*%
D10*
%TO.C,C5*%
X167575000Y-82700000D03*
X169475000Y-82700000D03*
%TD*%
D11*
%TO.C,J4*%
X187600000Y-109060000D03*
D12*
X187600000Y-111600000D03*
%TD*%
D13*
%TO.C,R3*%
X182550000Y-104460000D03*
X180725000Y-104460000D03*
%TD*%
D17*
%TO.C,U2*%
X171300000Y-88400000D03*
X172250001Y-88400000D03*
X173200002Y-88400000D03*
X173200002Y-85669500D03*
X172250001Y-85669500D03*
X171300000Y-85669500D03*
%TD*%
D14*
%TO.C,H3*%
X130193275Y-120493146D03*
X130896219Y-118796090D03*
X130896219Y-122190202D03*
X132593275Y-118093146D03*
D15*
X132593275Y-120493146D03*
D14*
X132593275Y-122893146D03*
X134290331Y-118796090D03*
X134290331Y-122190202D03*
X134993275Y-120493146D03*
%TD*%
D18*
%TO.C,L1*%
X169550000Y-85650000D03*
X167425000Y-85650000D03*
%TD*%
D14*
%TO.C,H2*%
X187429567Y-78381854D03*
X188132511Y-76684798D03*
X188132511Y-80078910D03*
X189829567Y-75981854D03*
D15*
X189829567Y-78381854D03*
D14*
X189829567Y-80781854D03*
X191526623Y-76684798D03*
X191526623Y-80078910D03*
X192229567Y-78381854D03*
%TD*%
%TO.C,H4*%
X187429567Y-120493146D03*
X188132511Y-118796090D03*
X188132511Y-122190202D03*
X189829567Y-118093146D03*
D15*
X189829567Y-120493146D03*
D14*
X189829567Y-122893146D03*
X191526623Y-118796090D03*
X191526623Y-122190202D03*
X192229567Y-120493146D03*
%TD*%
D19*
%TO.C,U1*%
X168150000Y-104355000D03*
X168150000Y-105625000D03*
X168150000Y-106895000D03*
X168150000Y-108165000D03*
X173598300Y-108165000D03*
X173598300Y-106895000D03*
X173598300Y-105625000D03*
X173598300Y-104355000D03*
%TD*%
D20*
%TO.C,R2*%
X175300000Y-87900000D03*
X177125000Y-87900000D03*
%TD*%
D21*
%TO.C,C3*%
X167925000Y-87900000D03*
X167925000Y-89800000D03*
%TD*%
D22*
%TO.C,A1*%
X141625000Y-75495000D03*
D23*
X141625000Y-78035000D03*
D24*
X141625000Y-80575000D03*
D23*
X141625000Y-83115000D03*
X141625000Y-85655000D03*
X141625000Y-88195000D03*
X141625000Y-90735000D03*
D24*
X141625000Y-93275000D03*
D23*
X141625000Y-95815000D03*
X141625000Y-98355000D03*
X141625000Y-100895000D03*
X141625000Y-103435000D03*
D24*
X141625000Y-105975000D03*
D23*
X141625000Y-108515000D03*
X141625000Y-111055000D03*
X141625000Y-113595000D03*
X141625000Y-116135000D03*
D24*
X141625000Y-118675000D03*
D23*
X141625000Y-121215000D03*
X141625000Y-123755000D03*
X159405000Y-123755000D03*
X159405000Y-121215000D03*
D25*
X159405000Y-118675000D03*
D23*
X159405000Y-116135000D03*
X159405000Y-113595000D03*
X159405000Y-111055000D03*
X159405000Y-108515000D03*
D25*
X159405000Y-105975000D03*
D23*
X159405000Y-103435000D03*
X159405000Y-100895000D03*
X159405000Y-98355000D03*
X159405000Y-95815000D03*
D25*
X159405000Y-93275000D03*
D23*
X159405000Y-90735000D03*
X159405000Y-88195000D03*
X159405000Y-85655000D03*
X159405000Y-83115000D03*
D25*
X159405000Y-80575000D03*
D23*
X159405000Y-78035000D03*
X159405000Y-75495000D03*
%TD*%
M02*
