%TF.GenerationSoftware,KiCad,Pcbnew,10.0.5*%
%TF.CreationDate,2026-09-09T21:09:36-04:00*%
%TF.ProjectId,TrailerMonitor,54726169-6c65-4724-9d6f-6e69746f722e,rev?*%
%TF.SameCoordinates,Original*%
%TF.FileFunction,Legend,Top*%
%TF.FilePolarity,Positive*%
%FSLAX46Y46*%
G04 Gerber Fmt 4.6, Leading zero omitted, Abs format (unit mm)*
G04 Created by KiCad (PCBNEW 10.0.5) date 2026-09-09 21:09:36*
%MOMM*%
%LPD*%
G01*
G04 APERTURE LIST*
%ADD10C,0.275000*%
%ADD11C,0.300000*%
%ADD12C,0.150000*%
%ADD13C,0.120000*%
%ADD14C,0.127000*%
%ADD15C,0.200000*%
%ADD16C,0.152400*%
G04 APERTURE END LIST*
D10*
X191701080Y-90339317D02*
X192801080Y-89972650D01*
X192801080Y-89972650D02*
X191701080Y-89605983D01*
X192801080Y-89239317D02*
X191701080Y-89239317D01*
X192801080Y-88715507D02*
X191701080Y-88715507D01*
X191701080Y-88715507D02*
X192801080Y-88086935D01*
X192801080Y-88086935D02*
X191701080Y-88086935D01*
X192801080Y-99307174D02*
X191701080Y-99307174D01*
X191701080Y-99307174D02*
X192486795Y-98940507D01*
X192486795Y-98940507D02*
X191701080Y-98573840D01*
X191701080Y-98573840D02*
X192801080Y-98573840D01*
X191701080Y-97840507D02*
X191701080Y-97630983D01*
X191701080Y-97630983D02*
X191753461Y-97526221D01*
X191753461Y-97526221D02*
X191858223Y-97421459D01*
X191858223Y-97421459D02*
X192067747Y-97369078D01*
X192067747Y-97369078D02*
X192434414Y-97369078D01*
X192434414Y-97369078D02*
X192643938Y-97421459D01*
X192643938Y-97421459D02*
X192748700Y-97526221D01*
X192748700Y-97526221D02*
X192801080Y-97630983D01*
X192801080Y-97630983D02*
X192801080Y-97840507D01*
X192801080Y-97840507D02*
X192748700Y-97945269D01*
X192748700Y-97945269D02*
X192643938Y-98050031D01*
X192643938Y-98050031D02*
X192434414Y-98102412D01*
X192434414Y-98102412D02*
X192067747Y-98102412D01*
X192067747Y-98102412D02*
X191858223Y-98050031D01*
X191858223Y-98050031D02*
X191753461Y-97945269D01*
X191753461Y-97945269D02*
X191701080Y-97840507D01*
X192801080Y-96897650D02*
X191701080Y-96897650D01*
X191701080Y-96897650D02*
X191701080Y-96635745D01*
X191701080Y-96635745D02*
X191753461Y-96478602D01*
X191753461Y-96478602D02*
X191858223Y-96373840D01*
X191858223Y-96373840D02*
X191962985Y-96321459D01*
X191962985Y-96321459D02*
X192172509Y-96269078D01*
X192172509Y-96269078D02*
X192329652Y-96269078D01*
X192329652Y-96269078D02*
X192539176Y-96321459D01*
X192539176Y-96321459D02*
X192643938Y-96373840D01*
X192643938Y-96373840D02*
X192748700Y-96478602D01*
X192748700Y-96478602D02*
X192801080Y-96635745D01*
X192801080Y-96635745D02*
X192801080Y-96897650D01*
X192224890Y-95430983D02*
X192277271Y-95273840D01*
X192277271Y-95273840D02*
X192329652Y-95221459D01*
X192329652Y-95221459D02*
X192434414Y-95169078D01*
X192434414Y-95169078D02*
X192591557Y-95169078D01*
X192591557Y-95169078D02*
X192696319Y-95221459D01*
X192696319Y-95221459D02*
X192748700Y-95273840D01*
X192748700Y-95273840D02*
X192801080Y-95378602D01*
X192801080Y-95378602D02*
X192801080Y-95797650D01*
X192801080Y-95797650D02*
X191701080Y-95797650D01*
X191701080Y-95797650D02*
X191701080Y-95430983D01*
X191701080Y-95430983D02*
X191753461Y-95326221D01*
X191753461Y-95326221D02*
X191805842Y-95273840D01*
X191805842Y-95273840D02*
X191910604Y-95221459D01*
X191910604Y-95221459D02*
X192015366Y-95221459D01*
X192015366Y-95221459D02*
X192120128Y-95273840D01*
X192120128Y-95273840D02*
X192172509Y-95326221D01*
X192172509Y-95326221D02*
X192224890Y-95430983D01*
X192224890Y-95430983D02*
X192224890Y-95797650D01*
X191701080Y-94697650D02*
X192591557Y-94697650D01*
X192591557Y-94697650D02*
X192696319Y-94645269D01*
X192696319Y-94645269D02*
X192748700Y-94592888D01*
X192748700Y-94592888D02*
X192801080Y-94488126D01*
X192801080Y-94488126D02*
X192801080Y-94278602D01*
X192801080Y-94278602D02*
X192748700Y-94173840D01*
X192748700Y-94173840D02*
X192696319Y-94121459D01*
X192696319Y-94121459D02*
X192591557Y-94069078D01*
X192591557Y-94069078D02*
X191701080Y-94069078D01*
X192748700Y-93597650D02*
X192801080Y-93440507D01*
X192801080Y-93440507D02*
X192801080Y-93178602D01*
X192801080Y-93178602D02*
X192748700Y-93073840D01*
X192748700Y-93073840D02*
X192696319Y-93021459D01*
X192696319Y-93021459D02*
X192591557Y-92969078D01*
X192591557Y-92969078D02*
X192486795Y-92969078D01*
X192486795Y-92969078D02*
X192382033Y-93021459D01*
X192382033Y-93021459D02*
X192329652Y-93073840D01*
X192329652Y-93073840D02*
X192277271Y-93178602D01*
X192277271Y-93178602D02*
X192224890Y-93388126D01*
X192224890Y-93388126D02*
X192172509Y-93492888D01*
X192172509Y-93492888D02*
X192120128Y-93545269D01*
X192120128Y-93545269D02*
X192015366Y-93597650D01*
X192015366Y-93597650D02*
X191910604Y-93597650D01*
X191910604Y-93597650D02*
X191805842Y-93545269D01*
X191805842Y-93545269D02*
X191753461Y-93492888D01*
X191753461Y-93492888D02*
X191701080Y-93388126D01*
X191701080Y-93388126D02*
X191701080Y-93126221D01*
X191701080Y-93126221D02*
X191753461Y-92969078D01*
X192801080Y-104741666D02*
X191701080Y-104741666D01*
X191701080Y-104741666D02*
X191701080Y-104322618D01*
X191701080Y-104322618D02*
X191753461Y-104217856D01*
X191753461Y-104217856D02*
X191805842Y-104165475D01*
X191805842Y-104165475D02*
X191910604Y-104113094D01*
X191910604Y-104113094D02*
X192067747Y-104113094D01*
X192067747Y-104113094D02*
X192172509Y-104165475D01*
X192172509Y-104165475D02*
X192224890Y-104217856D01*
X192224890Y-104217856D02*
X192277271Y-104322618D01*
X192277271Y-104322618D02*
X192277271Y-104741666D01*
X191701080Y-103746428D02*
X192801080Y-103484523D01*
X192801080Y-103484523D02*
X192015366Y-103274999D01*
X192015366Y-103274999D02*
X192801080Y-103065475D01*
X192801080Y-103065475D02*
X191701080Y-102803571D01*
X192801080Y-101755951D02*
X192277271Y-102122618D01*
X192801080Y-102384523D02*
X191701080Y-102384523D01*
X191701080Y-102384523D02*
X191701080Y-101965475D01*
X191701080Y-101965475D02*
X191753461Y-101860713D01*
X191753461Y-101860713D02*
X191805842Y-101808332D01*
X191805842Y-101808332D02*
X191910604Y-101755951D01*
X191910604Y-101755951D02*
X192067747Y-101755951D01*
X192067747Y-101755951D02*
X192172509Y-101808332D01*
X192172509Y-101808332D02*
X192224890Y-101860713D01*
X192224890Y-101860713D02*
X192277271Y-101965475D01*
X192277271Y-101965475D02*
X192277271Y-102384523D01*
X194572018Y-103982142D02*
X194572018Y-104505952D01*
X194572018Y-104505952D02*
X193472018Y-104505952D01*
X193995828Y-103615476D02*
X193995828Y-103248809D01*
X194572018Y-103091666D02*
X194572018Y-103615476D01*
X194572018Y-103615476D02*
X193472018Y-103615476D01*
X193472018Y-103615476D02*
X193472018Y-103091666D01*
X194572018Y-102620238D02*
X193472018Y-102620238D01*
X193472018Y-102620238D02*
X193472018Y-102358333D01*
X193472018Y-102358333D02*
X193524399Y-102201190D01*
X193524399Y-102201190D02*
X193629161Y-102096428D01*
X193629161Y-102096428D02*
X193733923Y-102044047D01*
X193733923Y-102044047D02*
X193943447Y-101991666D01*
X193943447Y-101991666D02*
X194100590Y-101991666D01*
X194100590Y-101991666D02*
X194310114Y-102044047D01*
X194310114Y-102044047D02*
X194414876Y-102096428D01*
X194414876Y-102096428D02*
X194519638Y-102201190D01*
X194519638Y-102201190D02*
X194572018Y-102358333D01*
X194572018Y-102358333D02*
X194572018Y-102620238D01*
X192801080Y-113442857D02*
X191701080Y-113442857D01*
X191701080Y-113442857D02*
X192486795Y-113076190D01*
X192486795Y-113076190D02*
X191701080Y-112709523D01*
X191701080Y-112709523D02*
X192801080Y-112709523D01*
X191701080Y-111976190D02*
X191701080Y-111766666D01*
X191701080Y-111766666D02*
X191753461Y-111661904D01*
X191753461Y-111661904D02*
X191858223Y-111557142D01*
X191858223Y-111557142D02*
X192067747Y-111504761D01*
X192067747Y-111504761D02*
X192434414Y-111504761D01*
X192434414Y-111504761D02*
X192643938Y-111557142D01*
X192643938Y-111557142D02*
X192748700Y-111661904D01*
X192748700Y-111661904D02*
X192801080Y-111766666D01*
X192801080Y-111766666D02*
X192801080Y-111976190D01*
X192801080Y-111976190D02*
X192748700Y-112080952D01*
X192748700Y-112080952D02*
X192643938Y-112185714D01*
X192643938Y-112185714D02*
X192434414Y-112238095D01*
X192434414Y-112238095D02*
X192067747Y-112238095D01*
X192067747Y-112238095D02*
X191858223Y-112185714D01*
X191858223Y-112185714D02*
X191753461Y-112080952D01*
X191753461Y-112080952D02*
X191701080Y-111976190D01*
X192801080Y-111033333D02*
X191701080Y-111033333D01*
X191701080Y-111033333D02*
X191701080Y-110771428D01*
X191701080Y-110771428D02*
X191753461Y-110614285D01*
X191753461Y-110614285D02*
X191858223Y-110509523D01*
X191858223Y-110509523D02*
X191962985Y-110457142D01*
X191962985Y-110457142D02*
X192172509Y-110404761D01*
X192172509Y-110404761D02*
X192329652Y-110404761D01*
X192329652Y-110404761D02*
X192539176Y-110457142D01*
X192539176Y-110457142D02*
X192643938Y-110509523D01*
X192643938Y-110509523D02*
X192748700Y-110614285D01*
X192748700Y-110614285D02*
X192801080Y-110771428D01*
X192801080Y-110771428D02*
X192801080Y-111033333D01*
X192224890Y-109566666D02*
X192277271Y-109409523D01*
X192277271Y-109409523D02*
X192329652Y-109357142D01*
X192329652Y-109357142D02*
X192434414Y-109304761D01*
X192434414Y-109304761D02*
X192591557Y-109304761D01*
X192591557Y-109304761D02*
X192696319Y-109357142D01*
X192696319Y-109357142D02*
X192748700Y-109409523D01*
X192748700Y-109409523D02*
X192801080Y-109514285D01*
X192801080Y-109514285D02*
X192801080Y-109933333D01*
X192801080Y-109933333D02*
X191701080Y-109933333D01*
X191701080Y-109933333D02*
X191701080Y-109566666D01*
X191701080Y-109566666D02*
X191753461Y-109461904D01*
X191753461Y-109461904D02*
X191805842Y-109409523D01*
X191805842Y-109409523D02*
X191910604Y-109357142D01*
X191910604Y-109357142D02*
X192015366Y-109357142D01*
X192015366Y-109357142D02*
X192120128Y-109409523D01*
X192120128Y-109409523D02*
X192172509Y-109461904D01*
X192172509Y-109461904D02*
X192224890Y-109566666D01*
X192224890Y-109566666D02*
X192224890Y-109933333D01*
X191701080Y-108833333D02*
X192591557Y-108833333D01*
X192591557Y-108833333D02*
X192696319Y-108780952D01*
X192696319Y-108780952D02*
X192748700Y-108728571D01*
X192748700Y-108728571D02*
X192801080Y-108623809D01*
X192801080Y-108623809D02*
X192801080Y-108414285D01*
X192801080Y-108414285D02*
X192748700Y-108309523D01*
X192748700Y-108309523D02*
X192696319Y-108257142D01*
X192696319Y-108257142D02*
X192591557Y-108204761D01*
X192591557Y-108204761D02*
X191701080Y-108204761D01*
X192748700Y-107733333D02*
X192801080Y-107576190D01*
X192801080Y-107576190D02*
X192801080Y-107314285D01*
X192801080Y-107314285D02*
X192748700Y-107209523D01*
X192748700Y-107209523D02*
X192696319Y-107157142D01*
X192696319Y-107157142D02*
X192591557Y-107104761D01*
X192591557Y-107104761D02*
X192486795Y-107104761D01*
X192486795Y-107104761D02*
X192382033Y-107157142D01*
X192382033Y-107157142D02*
X192329652Y-107209523D01*
X192329652Y-107209523D02*
X192277271Y-107314285D01*
X192277271Y-107314285D02*
X192224890Y-107523809D01*
X192224890Y-107523809D02*
X192172509Y-107628571D01*
X192172509Y-107628571D02*
X192120128Y-107680952D01*
X192120128Y-107680952D02*
X192015366Y-107733333D01*
X192015366Y-107733333D02*
X191910604Y-107733333D01*
X191910604Y-107733333D02*
X191805842Y-107680952D01*
X191805842Y-107680952D02*
X191753461Y-107628571D01*
X191753461Y-107628571D02*
X191701080Y-107523809D01*
X191701080Y-107523809D02*
X191701080Y-107261904D01*
X191701080Y-107261904D02*
X191753461Y-107104761D01*
X194257733Y-113442856D02*
X194257733Y-112919046D01*
X194572018Y-113547618D02*
X193472018Y-113180951D01*
X193472018Y-113180951D02*
X194572018Y-112814284D01*
X194467257Y-111819046D02*
X194519638Y-111871427D01*
X194519638Y-111871427D02*
X194572018Y-112028570D01*
X194572018Y-112028570D02*
X194572018Y-112133332D01*
X194572018Y-112133332D02*
X194519638Y-112290475D01*
X194519638Y-112290475D02*
X194414876Y-112395237D01*
X194414876Y-112395237D02*
X194310114Y-112447618D01*
X194310114Y-112447618D02*
X194100590Y-112499999D01*
X194100590Y-112499999D02*
X193943447Y-112499999D01*
X193943447Y-112499999D02*
X193733923Y-112447618D01*
X193733923Y-112447618D02*
X193629161Y-112395237D01*
X193629161Y-112395237D02*
X193524399Y-112290475D01*
X193524399Y-112290475D02*
X193472018Y-112133332D01*
X193472018Y-112133332D02*
X193472018Y-112028570D01*
X193472018Y-112028570D02*
X193524399Y-111871427D01*
X193524399Y-111871427D02*
X193576780Y-111819046D01*
X193472018Y-111504761D02*
X193472018Y-110876189D01*
X194572018Y-111190475D02*
X193472018Y-111190475D01*
X194572018Y-109147618D02*
X194572018Y-109671428D01*
X194572018Y-109671428D02*
X193472018Y-109671428D01*
X193995828Y-108780952D02*
X193995828Y-108414285D01*
X194572018Y-108257142D02*
X194572018Y-108780952D01*
X194572018Y-108780952D02*
X193472018Y-108780952D01*
X193472018Y-108780952D02*
X193472018Y-108257142D01*
X194572018Y-107785714D02*
X193472018Y-107785714D01*
X193472018Y-107785714D02*
X193472018Y-107523809D01*
X193472018Y-107523809D02*
X193524399Y-107366666D01*
X193524399Y-107366666D02*
X193629161Y-107261904D01*
X193629161Y-107261904D02*
X193733923Y-107209523D01*
X193733923Y-107209523D02*
X193943447Y-107157142D01*
X193943447Y-107157142D02*
X194100590Y-107157142D01*
X194100590Y-107157142D02*
X194310114Y-107209523D01*
X194310114Y-107209523D02*
X194414876Y-107261904D01*
X194414876Y-107261904D02*
X194519638Y-107366666D01*
X194519638Y-107366666D02*
X194572018Y-107523809D01*
X194572018Y-107523809D02*
X194572018Y-107785714D01*
D11*
X163482141Y-118855609D02*
X164167856Y-118855609D01*
X163824998Y-120055609D02*
X163824998Y-118855609D01*
X165253570Y-120055609D02*
X164853570Y-119484181D01*
X164567856Y-120055609D02*
X164567856Y-118855609D01*
X164567856Y-118855609D02*
X165024999Y-118855609D01*
X165024999Y-118855609D02*
X165139284Y-118912752D01*
X165139284Y-118912752D02*
X165196427Y-118969895D01*
X165196427Y-118969895D02*
X165253570Y-119084181D01*
X165253570Y-119084181D02*
X165253570Y-119255609D01*
X165253570Y-119255609D02*
X165196427Y-119369895D01*
X165196427Y-119369895D02*
X165139284Y-119427038D01*
X165139284Y-119427038D02*
X165024999Y-119484181D01*
X165024999Y-119484181D02*
X164567856Y-119484181D01*
X165710713Y-119712752D02*
X166282142Y-119712752D01*
X165596427Y-120055609D02*
X165996427Y-118855609D01*
X165996427Y-118855609D02*
X166396427Y-120055609D01*
X166796427Y-120055609D02*
X166796427Y-118855609D01*
X167939284Y-120055609D02*
X167367856Y-120055609D01*
X167367856Y-120055609D02*
X167367856Y-118855609D01*
X168339285Y-119427038D02*
X168739285Y-119427038D01*
X168910713Y-120055609D02*
X168339285Y-120055609D01*
X168339285Y-120055609D02*
X168339285Y-118855609D01*
X168339285Y-118855609D02*
X168910713Y-118855609D01*
X170110713Y-120055609D02*
X169710713Y-119484181D01*
X169424999Y-120055609D02*
X169424999Y-118855609D01*
X169424999Y-118855609D02*
X169882142Y-118855609D01*
X169882142Y-118855609D02*
X169996427Y-118912752D01*
X169996427Y-118912752D02*
X170053570Y-118969895D01*
X170053570Y-118969895D02*
X170110713Y-119084181D01*
X170110713Y-119084181D02*
X170110713Y-119255609D01*
X170110713Y-119255609D02*
X170053570Y-119369895D01*
X170053570Y-119369895D02*
X169996427Y-119427038D01*
X169996427Y-119427038D02*
X169882142Y-119484181D01*
X169882142Y-119484181D02*
X169424999Y-119484181D01*
X171539285Y-120055609D02*
X171539285Y-118855609D01*
X171539285Y-118855609D02*
X171939285Y-119712752D01*
X171939285Y-119712752D02*
X172339285Y-118855609D01*
X172339285Y-118855609D02*
X172339285Y-120055609D01*
X173139285Y-118855609D02*
X173367857Y-118855609D01*
X173367857Y-118855609D02*
X173482142Y-118912752D01*
X173482142Y-118912752D02*
X173596428Y-119027038D01*
X173596428Y-119027038D02*
X173653571Y-119255609D01*
X173653571Y-119255609D02*
X173653571Y-119655609D01*
X173653571Y-119655609D02*
X173596428Y-119884181D01*
X173596428Y-119884181D02*
X173482142Y-119998467D01*
X173482142Y-119998467D02*
X173367857Y-120055609D01*
X173367857Y-120055609D02*
X173139285Y-120055609D01*
X173139285Y-120055609D02*
X173025000Y-119998467D01*
X173025000Y-119998467D02*
X172910714Y-119884181D01*
X172910714Y-119884181D02*
X172853571Y-119655609D01*
X172853571Y-119655609D02*
X172853571Y-119255609D01*
X172853571Y-119255609D02*
X172910714Y-119027038D01*
X172910714Y-119027038D02*
X173025000Y-118912752D01*
X173025000Y-118912752D02*
X173139285Y-118855609D01*
X174167857Y-120055609D02*
X174167857Y-118855609D01*
X174167857Y-118855609D02*
X174853571Y-120055609D01*
X174853571Y-120055609D02*
X174853571Y-118855609D01*
X175425000Y-120055609D02*
X175425000Y-118855609D01*
X175825000Y-118855609D02*
X176510715Y-118855609D01*
X176167857Y-120055609D02*
X176167857Y-118855609D01*
X177139286Y-118855609D02*
X177367858Y-118855609D01*
X177367858Y-118855609D02*
X177482143Y-118912752D01*
X177482143Y-118912752D02*
X177596429Y-119027038D01*
X177596429Y-119027038D02*
X177653572Y-119255609D01*
X177653572Y-119255609D02*
X177653572Y-119655609D01*
X177653572Y-119655609D02*
X177596429Y-119884181D01*
X177596429Y-119884181D02*
X177482143Y-119998467D01*
X177482143Y-119998467D02*
X177367858Y-120055609D01*
X177367858Y-120055609D02*
X177139286Y-120055609D01*
X177139286Y-120055609D02*
X177025001Y-119998467D01*
X177025001Y-119998467D02*
X176910715Y-119884181D01*
X176910715Y-119884181D02*
X176853572Y-119655609D01*
X176853572Y-119655609D02*
X176853572Y-119255609D01*
X176853572Y-119255609D02*
X176910715Y-119027038D01*
X176910715Y-119027038D02*
X177025001Y-118912752D01*
X177025001Y-118912752D02*
X177139286Y-118855609D01*
X178853572Y-120055609D02*
X178453572Y-119484181D01*
X178167858Y-120055609D02*
X178167858Y-118855609D01*
X178167858Y-118855609D02*
X178625001Y-118855609D01*
X178625001Y-118855609D02*
X178739286Y-118912752D01*
X178739286Y-118912752D02*
X178796429Y-118969895D01*
X178796429Y-118969895D02*
X178853572Y-119084181D01*
X178853572Y-119084181D02*
X178853572Y-119255609D01*
X178853572Y-119255609D02*
X178796429Y-119369895D01*
X178796429Y-119369895D02*
X178739286Y-119427038D01*
X178739286Y-119427038D02*
X178625001Y-119484181D01*
X178625001Y-119484181D02*
X178167858Y-119484181D01*
X180110715Y-118855609D02*
X180510715Y-120055609D01*
X180510715Y-120055609D02*
X180910715Y-118855609D01*
X181939286Y-120055609D02*
X181253572Y-120055609D01*
X181596429Y-120055609D02*
X181596429Y-118855609D01*
X181596429Y-118855609D02*
X181482143Y-119027038D01*
X181482143Y-119027038D02*
X181367858Y-119141324D01*
X181367858Y-119141324D02*
X181253572Y-119198467D01*
X182453572Y-119941324D02*
X182510715Y-119998467D01*
X182510715Y-119998467D02*
X182453572Y-120055609D01*
X182453572Y-120055609D02*
X182396429Y-119998467D01*
X182396429Y-119998467D02*
X182453572Y-119941324D01*
X182453572Y-119941324D02*
X182453572Y-120055609D01*
X183253572Y-118855609D02*
X183367858Y-118855609D01*
X183367858Y-118855609D02*
X183482144Y-118912752D01*
X183482144Y-118912752D02*
X183539287Y-118969895D01*
X183539287Y-118969895D02*
X183596429Y-119084181D01*
X183596429Y-119084181D02*
X183653572Y-119312752D01*
X183653572Y-119312752D02*
X183653572Y-119598467D01*
X183653572Y-119598467D02*
X183596429Y-119827038D01*
X183596429Y-119827038D02*
X183539287Y-119941324D01*
X183539287Y-119941324D02*
X183482144Y-119998467D01*
X183482144Y-119998467D02*
X183367858Y-120055609D01*
X183367858Y-120055609D02*
X183253572Y-120055609D01*
X183253572Y-120055609D02*
X183139287Y-119998467D01*
X183139287Y-119998467D02*
X183082144Y-119941324D01*
X183082144Y-119941324D02*
X183025001Y-119827038D01*
X183025001Y-119827038D02*
X182967858Y-119598467D01*
X182967858Y-119598467D02*
X182967858Y-119312752D01*
X182967858Y-119312752D02*
X183025001Y-119084181D01*
X183025001Y-119084181D02*
X183082144Y-118969895D01*
X183082144Y-118969895D02*
X183139287Y-118912752D01*
X183139287Y-118912752D02*
X183253572Y-118855609D01*
X165939285Y-121987542D02*
X165939285Y-120787542D01*
X165939285Y-120787542D02*
X166339285Y-121644685D01*
X166339285Y-121644685D02*
X166739285Y-120787542D01*
X166739285Y-120787542D02*
X166739285Y-121987542D01*
X167310714Y-121987542D02*
X167310714Y-120787542D01*
X167882143Y-121987542D02*
X167882143Y-120787542D01*
X168567857Y-121987542D02*
X168053571Y-121301828D01*
X168567857Y-120787542D02*
X167882143Y-121473257D01*
X169082143Y-121358971D02*
X169482143Y-121358971D01*
X169653571Y-121987542D02*
X169082143Y-121987542D01*
X169082143Y-121987542D02*
X169082143Y-120787542D01*
X169082143Y-120787542D02*
X169653571Y-120787542D01*
X171082143Y-121987542D02*
X171082143Y-120787542D01*
X171082143Y-120787542D02*
X171482143Y-121644685D01*
X171482143Y-121644685D02*
X171882143Y-120787542D01*
X171882143Y-120787542D02*
X171882143Y-121987542D01*
X172967858Y-121930400D02*
X172853572Y-121987542D01*
X172853572Y-121987542D02*
X172625000Y-121987542D01*
X172625000Y-121987542D02*
X172510715Y-121930400D01*
X172510715Y-121930400D02*
X172453572Y-121873257D01*
X172453572Y-121873257D02*
X172396429Y-121758971D01*
X172396429Y-121758971D02*
X172396429Y-121416114D01*
X172396429Y-121416114D02*
X172453572Y-121301828D01*
X172453572Y-121301828D02*
X172510715Y-121244685D01*
X172510715Y-121244685D02*
X172625000Y-121187542D01*
X172625000Y-121187542D02*
X172853572Y-121187542D01*
X172853572Y-121187542D02*
X172967858Y-121244685D01*
X173482143Y-121987542D02*
X173482143Y-120787542D01*
X173482143Y-120787542D02*
X173939286Y-120787542D01*
X173939286Y-120787542D02*
X174053571Y-120844685D01*
X174053571Y-120844685D02*
X174110714Y-120901828D01*
X174110714Y-120901828D02*
X174167857Y-121016114D01*
X174167857Y-121016114D02*
X174167857Y-121187542D01*
X174167857Y-121187542D02*
X174110714Y-121301828D01*
X174110714Y-121301828D02*
X174053571Y-121358971D01*
X174053571Y-121358971D02*
X173939286Y-121416114D01*
X173939286Y-121416114D02*
X173482143Y-121416114D01*
X174682143Y-121987542D02*
X174682143Y-120787542D01*
X174682143Y-121358971D02*
X175367857Y-121358971D01*
X175367857Y-121987542D02*
X175367857Y-120787542D01*
X175939286Y-121358971D02*
X176339286Y-121358971D01*
X176510714Y-121987542D02*
X175939286Y-121987542D01*
X175939286Y-121987542D02*
X175939286Y-120787542D01*
X175939286Y-120787542D02*
X176510714Y-120787542D01*
X177710714Y-121987542D02*
X177310714Y-121416114D01*
X177025000Y-121987542D02*
X177025000Y-120787542D01*
X177025000Y-120787542D02*
X177482143Y-120787542D01*
X177482143Y-120787542D02*
X177596428Y-120844685D01*
X177596428Y-120844685D02*
X177653571Y-120901828D01*
X177653571Y-120901828D02*
X177710714Y-121016114D01*
X177710714Y-121016114D02*
X177710714Y-121187542D01*
X177710714Y-121187542D02*
X177653571Y-121301828D01*
X177653571Y-121301828D02*
X177596428Y-121358971D01*
X177596428Y-121358971D02*
X177482143Y-121416114D01*
X177482143Y-121416114D02*
X177025000Y-121416114D01*
X178167857Y-121930400D02*
X178339286Y-121987542D01*
X178339286Y-121987542D02*
X178625000Y-121987542D01*
X178625000Y-121987542D02*
X178739286Y-121930400D01*
X178739286Y-121930400D02*
X178796428Y-121873257D01*
X178796428Y-121873257D02*
X178853571Y-121758971D01*
X178853571Y-121758971D02*
X178853571Y-121644685D01*
X178853571Y-121644685D02*
X178796428Y-121530400D01*
X178796428Y-121530400D02*
X178739286Y-121473257D01*
X178739286Y-121473257D02*
X178625000Y-121416114D01*
X178625000Y-121416114D02*
X178396428Y-121358971D01*
X178396428Y-121358971D02*
X178282143Y-121301828D01*
X178282143Y-121301828D02*
X178225000Y-121244685D01*
X178225000Y-121244685D02*
X178167857Y-121130400D01*
X178167857Y-121130400D02*
X178167857Y-121016114D01*
X178167857Y-121016114D02*
X178225000Y-120901828D01*
X178225000Y-120901828D02*
X178282143Y-120844685D01*
X178282143Y-120844685D02*
X178396428Y-120787542D01*
X178396428Y-120787542D02*
X178682143Y-120787542D01*
X178682143Y-120787542D02*
X178853571Y-120844685D01*
X179596428Y-120787542D02*
X179825000Y-120787542D01*
X179825000Y-120787542D02*
X179939285Y-120844685D01*
X179939285Y-120844685D02*
X180053571Y-120958971D01*
X180053571Y-120958971D02*
X180110714Y-121187542D01*
X180110714Y-121187542D02*
X180110714Y-121587542D01*
X180110714Y-121587542D02*
X180053571Y-121816114D01*
X180053571Y-121816114D02*
X179939285Y-121930400D01*
X179939285Y-121930400D02*
X179825000Y-121987542D01*
X179825000Y-121987542D02*
X179596428Y-121987542D01*
X179596428Y-121987542D02*
X179482143Y-121930400D01*
X179482143Y-121930400D02*
X179367857Y-121816114D01*
X179367857Y-121816114D02*
X179310714Y-121587542D01*
X179310714Y-121587542D02*
X179310714Y-121187542D01*
X179310714Y-121187542D02*
X179367857Y-120958971D01*
X179367857Y-120958971D02*
X179482143Y-120844685D01*
X179482143Y-120844685D02*
X179596428Y-120787542D01*
X180625000Y-121987542D02*
X180625000Y-120787542D01*
X180625000Y-120787542D02*
X181310714Y-121987542D01*
X181310714Y-121987542D02*
X181310714Y-120787542D01*
D12*
X165608333Y-80959580D02*
X165560714Y-81007200D01*
X165560714Y-81007200D02*
X165417857Y-81054819D01*
X165417857Y-81054819D02*
X165322619Y-81054819D01*
X165322619Y-81054819D02*
X165179762Y-81007200D01*
X165179762Y-81007200D02*
X165084524Y-80911961D01*
X165084524Y-80911961D02*
X165036905Y-80816723D01*
X165036905Y-80816723D02*
X164989286Y-80626247D01*
X164989286Y-80626247D02*
X164989286Y-80483390D01*
X164989286Y-80483390D02*
X165036905Y-80292914D01*
X165036905Y-80292914D02*
X165084524Y-80197676D01*
X165084524Y-80197676D02*
X165179762Y-80102438D01*
X165179762Y-80102438D02*
X165322619Y-80054819D01*
X165322619Y-80054819D02*
X165417857Y-80054819D01*
X165417857Y-80054819D02*
X165560714Y-80102438D01*
X165560714Y-80102438D02*
X165608333Y-80150057D01*
X166465476Y-80388152D02*
X166465476Y-81054819D01*
X166227381Y-80007200D02*
X165989286Y-80721485D01*
X165989286Y-80721485D02*
X166608333Y-80721485D01*
X176633333Y-81459580D02*
X176585714Y-81507200D01*
X176585714Y-81507200D02*
X176442857Y-81554819D01*
X176442857Y-81554819D02*
X176347619Y-81554819D01*
X176347619Y-81554819D02*
X176204762Y-81507200D01*
X176204762Y-81507200D02*
X176109524Y-81411961D01*
X176109524Y-81411961D02*
X176061905Y-81316723D01*
X176061905Y-81316723D02*
X176014286Y-81126247D01*
X176014286Y-81126247D02*
X176014286Y-80983390D01*
X176014286Y-80983390D02*
X176061905Y-80792914D01*
X176061905Y-80792914D02*
X176109524Y-80697676D01*
X176109524Y-80697676D02*
X176204762Y-80602438D01*
X176204762Y-80602438D02*
X176347619Y-80554819D01*
X176347619Y-80554819D02*
X176442857Y-80554819D01*
X176442857Y-80554819D02*
X176585714Y-80602438D01*
X176585714Y-80602438D02*
X176633333Y-80650057D01*
X177585714Y-81554819D02*
X177014286Y-81554819D01*
X177300000Y-81554819D02*
X177300000Y-80554819D01*
X177300000Y-80554819D02*
X177204762Y-80697676D01*
X177204762Y-80697676D02*
X177109524Y-80792914D01*
X177109524Y-80792914D02*
X177014286Y-80840533D01*
X182841666Y-87104819D02*
X182841666Y-87819104D01*
X182841666Y-87819104D02*
X182794047Y-87961961D01*
X182794047Y-87961961D02*
X182698809Y-88057200D01*
X182698809Y-88057200D02*
X182555952Y-88104819D01*
X182555952Y-88104819D02*
X182460714Y-88104819D01*
X183841666Y-88104819D02*
X183270238Y-88104819D01*
X183555952Y-88104819D02*
X183555952Y-87104819D01*
X183555952Y-87104819D02*
X183460714Y-87247676D01*
X183460714Y-87247676D02*
X183365476Y-87342914D01*
X183365476Y-87342914D02*
X183270238Y-87390533D01*
X182841666Y-101354819D02*
X182841666Y-102069104D01*
X182841666Y-102069104D02*
X182794047Y-102211961D01*
X182794047Y-102211961D02*
X182698809Y-102307200D01*
X182698809Y-102307200D02*
X182555952Y-102354819D01*
X182555952Y-102354819D02*
X182460714Y-102354819D01*
X183222619Y-101354819D02*
X183841666Y-101354819D01*
X183841666Y-101354819D02*
X183508333Y-101735771D01*
X183508333Y-101735771D02*
X183651190Y-101735771D01*
X183651190Y-101735771D02*
X183746428Y-101783390D01*
X183746428Y-101783390D02*
X183794047Y-101831009D01*
X183794047Y-101831009D02*
X183841666Y-101926247D01*
X183841666Y-101926247D02*
X183841666Y-102164342D01*
X183841666Y-102164342D02*
X183794047Y-102259580D01*
X183794047Y-102259580D02*
X183746428Y-102307200D01*
X183746428Y-102307200D02*
X183651190Y-102354819D01*
X183651190Y-102354819D02*
X183365476Y-102354819D01*
X183365476Y-102354819D02*
X183270238Y-102307200D01*
X183270238Y-102307200D02*
X183222619Y-102259580D01*
X176633333Y-83584580D02*
X176585714Y-83632200D01*
X176585714Y-83632200D02*
X176442857Y-83679819D01*
X176442857Y-83679819D02*
X176347619Y-83679819D01*
X176347619Y-83679819D02*
X176204762Y-83632200D01*
X176204762Y-83632200D02*
X176109524Y-83536961D01*
X176109524Y-83536961D02*
X176061905Y-83441723D01*
X176061905Y-83441723D02*
X176014286Y-83251247D01*
X176014286Y-83251247D02*
X176014286Y-83108390D01*
X176014286Y-83108390D02*
X176061905Y-82917914D01*
X176061905Y-82917914D02*
X176109524Y-82822676D01*
X176109524Y-82822676D02*
X176204762Y-82727438D01*
X176204762Y-82727438D02*
X176347619Y-82679819D01*
X176347619Y-82679819D02*
X176442857Y-82679819D01*
X176442857Y-82679819D02*
X176585714Y-82727438D01*
X176585714Y-82727438D02*
X176633333Y-82775057D01*
X177014286Y-82775057D02*
X177061905Y-82727438D01*
X177061905Y-82727438D02*
X177157143Y-82679819D01*
X177157143Y-82679819D02*
X177395238Y-82679819D01*
X177395238Y-82679819D02*
X177490476Y-82727438D01*
X177490476Y-82727438D02*
X177538095Y-82775057D01*
X177538095Y-82775057D02*
X177585714Y-82870295D01*
X177585714Y-82870295D02*
X177585714Y-82965533D01*
X177585714Y-82965533D02*
X177538095Y-83108390D01*
X177538095Y-83108390D02*
X176966667Y-83679819D01*
X176966667Y-83679819D02*
X177585714Y-83679819D01*
X182791666Y-94329819D02*
X182791666Y-95044104D01*
X182791666Y-95044104D02*
X182744047Y-95186961D01*
X182744047Y-95186961D02*
X182648809Y-95282200D01*
X182648809Y-95282200D02*
X182505952Y-95329819D01*
X182505952Y-95329819D02*
X182410714Y-95329819D01*
X183220238Y-94425057D02*
X183267857Y-94377438D01*
X183267857Y-94377438D02*
X183363095Y-94329819D01*
X183363095Y-94329819D02*
X183601190Y-94329819D01*
X183601190Y-94329819D02*
X183696428Y-94377438D01*
X183696428Y-94377438D02*
X183744047Y-94425057D01*
X183744047Y-94425057D02*
X183791666Y-94520295D01*
X183791666Y-94520295D02*
X183791666Y-94615533D01*
X183791666Y-94615533D02*
X183744047Y-94758390D01*
X183744047Y-94758390D02*
X183172619Y-95329819D01*
X183172619Y-95329819D02*
X183791666Y-95329819D01*
X178658333Y-90354819D02*
X178325000Y-89878628D01*
X178086905Y-90354819D02*
X178086905Y-89354819D01*
X178086905Y-89354819D02*
X178467857Y-89354819D01*
X178467857Y-89354819D02*
X178563095Y-89402438D01*
X178563095Y-89402438D02*
X178610714Y-89450057D01*
X178610714Y-89450057D02*
X178658333Y-89545295D01*
X178658333Y-89545295D02*
X178658333Y-89688152D01*
X178658333Y-89688152D02*
X178610714Y-89783390D01*
X178610714Y-89783390D02*
X178563095Y-89831009D01*
X178563095Y-89831009D02*
X178467857Y-89878628D01*
X178467857Y-89878628D02*
X178086905Y-89878628D01*
X179610714Y-90354819D02*
X179039286Y-90354819D01*
X179325000Y-90354819D02*
X179325000Y-89354819D01*
X179325000Y-89354819D02*
X179229762Y-89497676D01*
X179229762Y-89497676D02*
X179134524Y-89592914D01*
X179134524Y-89592914D02*
X179039286Y-89640533D01*
X181470833Y-113704819D02*
X181137500Y-113228628D01*
X180899405Y-113704819D02*
X180899405Y-112704819D01*
X180899405Y-112704819D02*
X181280357Y-112704819D01*
X181280357Y-112704819D02*
X181375595Y-112752438D01*
X181375595Y-112752438D02*
X181423214Y-112800057D01*
X181423214Y-112800057D02*
X181470833Y-112895295D01*
X181470833Y-112895295D02*
X181470833Y-113038152D01*
X181470833Y-113038152D02*
X181423214Y-113133390D01*
X181423214Y-113133390D02*
X181375595Y-113181009D01*
X181375595Y-113181009D02*
X181280357Y-113228628D01*
X181280357Y-113228628D02*
X180899405Y-113228628D01*
X182327976Y-113038152D02*
X182327976Y-113704819D01*
X182089881Y-112657200D02*
X181851786Y-113371485D01*
X181851786Y-113371485D02*
X182470833Y-113371485D01*
X131831370Y-74686673D02*
X131831370Y-73686673D01*
X131831370Y-74162863D02*
X132402798Y-74162863D01*
X132402798Y-74686673D02*
X132402798Y-73686673D01*
X133402798Y-74686673D02*
X132831370Y-74686673D01*
X133117084Y-74686673D02*
X133117084Y-73686673D01*
X133117084Y-73686673D02*
X133021846Y-73829530D01*
X133021846Y-73829530D02*
X132926608Y-73924768D01*
X132926608Y-73924768D02*
X132831370Y-73972387D01*
X164543809Y-74795485D02*
X164467619Y-74757390D01*
X164467619Y-74757390D02*
X164391428Y-74681200D01*
X164391428Y-74681200D02*
X164277142Y-74566914D01*
X164277142Y-74566914D02*
X164200952Y-74528819D01*
X164200952Y-74528819D02*
X164124761Y-74528819D01*
X164162857Y-74719295D02*
X164086666Y-74681200D01*
X164086666Y-74681200D02*
X164010476Y-74605009D01*
X164010476Y-74605009D02*
X163972380Y-74452628D01*
X163972380Y-74452628D02*
X163972380Y-74185961D01*
X163972380Y-74185961D02*
X164010476Y-74033580D01*
X164010476Y-74033580D02*
X164086666Y-73957390D01*
X164086666Y-73957390D02*
X164162857Y-73919295D01*
X164162857Y-73919295D02*
X164315238Y-73919295D01*
X164315238Y-73919295D02*
X164391428Y-73957390D01*
X164391428Y-73957390D02*
X164467619Y-74033580D01*
X164467619Y-74033580D02*
X164505714Y-74185961D01*
X164505714Y-74185961D02*
X164505714Y-74452628D01*
X164505714Y-74452628D02*
X164467619Y-74605009D01*
X164467619Y-74605009D02*
X164391428Y-74681200D01*
X164391428Y-74681200D02*
X164315238Y-74719295D01*
X164315238Y-74719295D02*
X164162857Y-74719295D01*
X165267618Y-74719295D02*
X164810475Y-74719295D01*
X165039047Y-74719295D02*
X165039047Y-73919295D01*
X165039047Y-73919295D02*
X164962856Y-74033580D01*
X164962856Y-74033580D02*
X164886666Y-74109771D01*
X164886666Y-74109771D02*
X164810475Y-74147866D01*
X165658333Y-83034580D02*
X165610714Y-83082200D01*
X165610714Y-83082200D02*
X165467857Y-83129819D01*
X165467857Y-83129819D02*
X165372619Y-83129819D01*
X165372619Y-83129819D02*
X165229762Y-83082200D01*
X165229762Y-83082200D02*
X165134524Y-82986961D01*
X165134524Y-82986961D02*
X165086905Y-82891723D01*
X165086905Y-82891723D02*
X165039286Y-82701247D01*
X165039286Y-82701247D02*
X165039286Y-82558390D01*
X165039286Y-82558390D02*
X165086905Y-82367914D01*
X165086905Y-82367914D02*
X165134524Y-82272676D01*
X165134524Y-82272676D02*
X165229762Y-82177438D01*
X165229762Y-82177438D02*
X165372619Y-82129819D01*
X165372619Y-82129819D02*
X165467857Y-82129819D01*
X165467857Y-82129819D02*
X165610714Y-82177438D01*
X165610714Y-82177438D02*
X165658333Y-82225057D01*
X166563095Y-82129819D02*
X166086905Y-82129819D01*
X166086905Y-82129819D02*
X166039286Y-82606009D01*
X166039286Y-82606009D02*
X166086905Y-82558390D01*
X166086905Y-82558390D02*
X166182143Y-82510771D01*
X166182143Y-82510771D02*
X166420238Y-82510771D01*
X166420238Y-82510771D02*
X166515476Y-82558390D01*
X166515476Y-82558390D02*
X166563095Y-82606009D01*
X166563095Y-82606009D02*
X166610714Y-82701247D01*
X166610714Y-82701247D02*
X166610714Y-82939342D01*
X166610714Y-82939342D02*
X166563095Y-83034580D01*
X166563095Y-83034580D02*
X166515476Y-83082200D01*
X166515476Y-83082200D02*
X166420238Y-83129819D01*
X166420238Y-83129819D02*
X166182143Y-83129819D01*
X166182143Y-83129819D02*
X166086905Y-83082200D01*
X166086905Y-83082200D02*
X166039286Y-83034580D01*
X182791666Y-108479819D02*
X182791666Y-109194104D01*
X182791666Y-109194104D02*
X182744047Y-109336961D01*
X182744047Y-109336961D02*
X182648809Y-109432200D01*
X182648809Y-109432200D02*
X182505952Y-109479819D01*
X182505952Y-109479819D02*
X182410714Y-109479819D01*
X183696428Y-108813152D02*
X183696428Y-109479819D01*
X183458333Y-108432200D02*
X183220238Y-109146485D01*
X183220238Y-109146485D02*
X183839285Y-109146485D01*
X181470833Y-106564819D02*
X181137500Y-106088628D01*
X180899405Y-106564819D02*
X180899405Y-105564819D01*
X180899405Y-105564819D02*
X181280357Y-105564819D01*
X181280357Y-105564819D02*
X181375595Y-105612438D01*
X181375595Y-105612438D02*
X181423214Y-105660057D01*
X181423214Y-105660057D02*
X181470833Y-105755295D01*
X181470833Y-105755295D02*
X181470833Y-105898152D01*
X181470833Y-105898152D02*
X181423214Y-105993390D01*
X181423214Y-105993390D02*
X181375595Y-106041009D01*
X181375595Y-106041009D02*
X181280357Y-106088628D01*
X181280357Y-106088628D02*
X180899405Y-106088628D01*
X181804167Y-105564819D02*
X182423214Y-105564819D01*
X182423214Y-105564819D02*
X182089881Y-105945771D01*
X182089881Y-105945771D02*
X182232738Y-105945771D01*
X182232738Y-105945771D02*
X182327976Y-105993390D01*
X182327976Y-105993390D02*
X182375595Y-106041009D01*
X182375595Y-106041009D02*
X182423214Y-106136247D01*
X182423214Y-106136247D02*
X182423214Y-106374342D01*
X182423214Y-106374342D02*
X182375595Y-106469580D01*
X182375595Y-106469580D02*
X182327976Y-106517200D01*
X182327976Y-106517200D02*
X182232738Y-106564819D01*
X182232738Y-106564819D02*
X181947024Y-106564819D01*
X181947024Y-106564819D02*
X181851786Y-106517200D01*
X181851786Y-106517200D02*
X181804167Y-106469580D01*
X171488095Y-89554819D02*
X171488095Y-90364342D01*
X171488095Y-90364342D02*
X171535714Y-90459580D01*
X171535714Y-90459580D02*
X171583333Y-90507200D01*
X171583333Y-90507200D02*
X171678571Y-90554819D01*
X171678571Y-90554819D02*
X171869047Y-90554819D01*
X171869047Y-90554819D02*
X171964285Y-90507200D01*
X171964285Y-90507200D02*
X172011904Y-90459580D01*
X172011904Y-90459580D02*
X172059523Y-90364342D01*
X172059523Y-90364342D02*
X172059523Y-89554819D01*
X172488095Y-89650057D02*
X172535714Y-89602438D01*
X172535714Y-89602438D02*
X172630952Y-89554819D01*
X172630952Y-89554819D02*
X172869047Y-89554819D01*
X172869047Y-89554819D02*
X172964285Y-89602438D01*
X172964285Y-89602438D02*
X173011904Y-89650057D01*
X173011904Y-89650057D02*
X173059523Y-89745295D01*
X173059523Y-89745295D02*
X173059523Y-89840533D01*
X173059523Y-89840533D02*
X173011904Y-89983390D01*
X173011904Y-89983390D02*
X172440476Y-90554819D01*
X172440476Y-90554819D02*
X173059523Y-90554819D01*
X169674820Y-88034749D02*
X169912915Y-88034749D01*
X169817677Y-88272844D02*
X169912915Y-88034749D01*
X169912915Y-88034749D02*
X169817677Y-87796654D01*
X170103391Y-88177606D02*
X169912915Y-88034749D01*
X169912915Y-88034749D02*
X170103391Y-87891892D01*
X169674820Y-88034749D02*
X169912915Y-88034749D01*
X169817677Y-88272844D02*
X169912915Y-88034749D01*
X169912915Y-88034749D02*
X169817677Y-87796654D01*
X170103391Y-88177606D02*
X169912915Y-88034749D01*
X169912915Y-88034749D02*
X170103391Y-87891892D01*
X131831370Y-116797965D02*
X131831370Y-115797965D01*
X131831370Y-116274155D02*
X132402798Y-116274155D01*
X132402798Y-116797965D02*
X132402798Y-115797965D01*
X132783751Y-115797965D02*
X133402798Y-115797965D01*
X133402798Y-115797965D02*
X133069465Y-116178917D01*
X133069465Y-116178917D02*
X133212322Y-116178917D01*
X133212322Y-116178917D02*
X133307560Y-116226536D01*
X133307560Y-116226536D02*
X133355179Y-116274155D01*
X133355179Y-116274155D02*
X133402798Y-116369393D01*
X133402798Y-116369393D02*
X133402798Y-116607488D01*
X133402798Y-116607488D02*
X133355179Y-116702726D01*
X133355179Y-116702726D02*
X133307560Y-116750346D01*
X133307560Y-116750346D02*
X133212322Y-116797965D01*
X133212322Y-116797965D02*
X132926608Y-116797965D01*
X132926608Y-116797965D02*
X132831370Y-116750346D01*
X132831370Y-116750346D02*
X132783751Y-116702726D01*
X165633333Y-86104819D02*
X165157143Y-86104819D01*
X165157143Y-86104819D02*
X165157143Y-85104819D01*
X166490476Y-86104819D02*
X165919048Y-86104819D01*
X166204762Y-86104819D02*
X166204762Y-85104819D01*
X166204762Y-85104819D02*
X166109524Y-85247676D01*
X166109524Y-85247676D02*
X166014286Y-85342914D01*
X166014286Y-85342914D02*
X165919048Y-85390533D01*
X189067662Y-74686673D02*
X189067662Y-73686673D01*
X189067662Y-74162863D02*
X189639090Y-74162863D01*
X189639090Y-74686673D02*
X189639090Y-73686673D01*
X190067662Y-73781911D02*
X190115281Y-73734292D01*
X190115281Y-73734292D02*
X190210519Y-73686673D01*
X190210519Y-73686673D02*
X190448614Y-73686673D01*
X190448614Y-73686673D02*
X190543852Y-73734292D01*
X190543852Y-73734292D02*
X190591471Y-73781911D01*
X190591471Y-73781911D02*
X190639090Y-73877149D01*
X190639090Y-73877149D02*
X190639090Y-73972387D01*
X190639090Y-73972387D02*
X190591471Y-74115244D01*
X190591471Y-74115244D02*
X190020043Y-74686673D01*
X190020043Y-74686673D02*
X190639090Y-74686673D01*
X189067662Y-116797965D02*
X189067662Y-115797965D01*
X189067662Y-116274155D02*
X189639090Y-116274155D01*
X189639090Y-116797965D02*
X189639090Y-115797965D01*
X190543852Y-116131298D02*
X190543852Y-116797965D01*
X190305757Y-115750346D02*
X190067662Y-116464631D01*
X190067662Y-116464631D02*
X190686709Y-116464631D01*
X168638095Y-102059819D02*
X168638095Y-102869342D01*
X168638095Y-102869342D02*
X168685714Y-102964580D01*
X168685714Y-102964580D02*
X168733333Y-103012200D01*
X168733333Y-103012200D02*
X168828571Y-103059819D01*
X168828571Y-103059819D02*
X169019047Y-103059819D01*
X169019047Y-103059819D02*
X169114285Y-103012200D01*
X169114285Y-103012200D02*
X169161904Y-102964580D01*
X169161904Y-102964580D02*
X169209523Y-102869342D01*
X169209523Y-102869342D02*
X169209523Y-102059819D01*
X170209523Y-103059819D02*
X169638095Y-103059819D01*
X169923809Y-103059819D02*
X169923809Y-102059819D01*
X169923809Y-102059819D02*
X169828571Y-102202676D01*
X169828571Y-102202676D02*
X169733333Y-102297914D01*
X169733333Y-102297914D02*
X169638095Y-102345533D01*
X167896000Y-102133419D02*
X167896000Y-102371514D01*
X167657905Y-102276276D02*
X167896000Y-102371514D01*
X167896000Y-102371514D02*
X168134095Y-102276276D01*
X167753143Y-102561990D02*
X167896000Y-102371514D01*
X167896000Y-102371514D02*
X168038857Y-102561990D01*
X167896000Y-102133419D02*
X167896000Y-102371514D01*
X167657905Y-102276276D02*
X167896000Y-102371514D01*
X167896000Y-102371514D02*
X168134095Y-102276276D01*
X167753143Y-102561990D02*
X167896000Y-102371514D01*
X167896000Y-102371514D02*
X168038857Y-102561990D01*
X178683333Y-88354819D02*
X178350000Y-87878628D01*
X178111905Y-88354819D02*
X178111905Y-87354819D01*
X178111905Y-87354819D02*
X178492857Y-87354819D01*
X178492857Y-87354819D02*
X178588095Y-87402438D01*
X178588095Y-87402438D02*
X178635714Y-87450057D01*
X178635714Y-87450057D02*
X178683333Y-87545295D01*
X178683333Y-87545295D02*
X178683333Y-87688152D01*
X178683333Y-87688152D02*
X178635714Y-87783390D01*
X178635714Y-87783390D02*
X178588095Y-87831009D01*
X178588095Y-87831009D02*
X178492857Y-87878628D01*
X178492857Y-87878628D02*
X178111905Y-87878628D01*
X179064286Y-87450057D02*
X179111905Y-87402438D01*
X179111905Y-87402438D02*
X179207143Y-87354819D01*
X179207143Y-87354819D02*
X179445238Y-87354819D01*
X179445238Y-87354819D02*
X179540476Y-87402438D01*
X179540476Y-87402438D02*
X179588095Y-87450057D01*
X179588095Y-87450057D02*
X179635714Y-87545295D01*
X179635714Y-87545295D02*
X179635714Y-87640533D01*
X179635714Y-87640533D02*
X179588095Y-87783390D01*
X179588095Y-87783390D02*
X179016667Y-88354819D01*
X179016667Y-88354819D02*
X179635714Y-88354819D01*
X165758333Y-89209580D02*
X165710714Y-89257200D01*
X165710714Y-89257200D02*
X165567857Y-89304819D01*
X165567857Y-89304819D02*
X165472619Y-89304819D01*
X165472619Y-89304819D02*
X165329762Y-89257200D01*
X165329762Y-89257200D02*
X165234524Y-89161961D01*
X165234524Y-89161961D02*
X165186905Y-89066723D01*
X165186905Y-89066723D02*
X165139286Y-88876247D01*
X165139286Y-88876247D02*
X165139286Y-88733390D01*
X165139286Y-88733390D02*
X165186905Y-88542914D01*
X165186905Y-88542914D02*
X165234524Y-88447676D01*
X165234524Y-88447676D02*
X165329762Y-88352438D01*
X165329762Y-88352438D02*
X165472619Y-88304819D01*
X165472619Y-88304819D02*
X165567857Y-88304819D01*
X165567857Y-88304819D02*
X165710714Y-88352438D01*
X165710714Y-88352438D02*
X165758333Y-88400057D01*
X166091667Y-88304819D02*
X166710714Y-88304819D01*
X166710714Y-88304819D02*
X166377381Y-88685771D01*
X166377381Y-88685771D02*
X166520238Y-88685771D01*
X166520238Y-88685771D02*
X166615476Y-88733390D01*
X166615476Y-88733390D02*
X166663095Y-88781009D01*
X166663095Y-88781009D02*
X166710714Y-88876247D01*
X166710714Y-88876247D02*
X166710714Y-89114342D01*
X166710714Y-89114342D02*
X166663095Y-89209580D01*
X166663095Y-89209580D02*
X166615476Y-89257200D01*
X166615476Y-89257200D02*
X166520238Y-89304819D01*
X166520238Y-89304819D02*
X166234524Y-89304819D01*
X166234524Y-89304819D02*
X166139286Y-89257200D01*
X166139286Y-89257200D02*
X166091667Y-89209580D01*
X137039160Y-74844104D02*
X137515350Y-74844104D01*
X136943922Y-75129819D02*
X137277255Y-74129819D01*
X137277255Y-74129819D02*
X137610588Y-75129819D01*
X138467731Y-75129819D02*
X137896303Y-75129819D01*
X138182017Y-75129819D02*
X138182017Y-74129819D01*
X138182017Y-74129819D02*
X138086779Y-74272676D01*
X138086779Y-74272676D02*
X137991541Y-74367914D01*
X137991541Y-74367914D02*
X137896303Y-74415533D01*
%TO.C,C4*%
D13*
X168263748Y-79890000D02*
X168786252Y-79890000D01*
X168263748Y-81360000D02*
X168786252Y-81360000D01*
%TO.C,C1*%
X173863748Y-80390000D02*
X174386252Y-80390000D01*
X173863748Y-81860000D02*
X174386252Y-81860000D01*
%TO.C,J1*%
X184610000Y-87640000D02*
X185610000Y-87640000D01*
X184610000Y-87890000D02*
X185610000Y-87890000D01*
X184610000Y-89930000D02*
X185610000Y-89930000D01*
X185610000Y-87640000D02*
X185610000Y-90180000D01*
X185610000Y-87640000D02*
X186140000Y-87890000D01*
X185610000Y-90180000D02*
X184610000Y-90180000D01*
X186140000Y-87890000D02*
X186140000Y-89930000D01*
X186140000Y-89930000D02*
X185610000Y-90180000D01*
X189600000Y-85970000D02*
X185600000Y-85970000D01*
X190030000Y-86840000D02*
X190030000Y-88440000D01*
X190030000Y-88440000D02*
X190630000Y-88440000D01*
X190030000Y-89380000D02*
X190030000Y-90980000D01*
X190030000Y-90980000D02*
X190630000Y-90980000D01*
X190630000Y-86840000D02*
X190030000Y-86840000D01*
X190630000Y-89380000D02*
X190030000Y-89380000D01*
X184610000Y-86260000D02*
X190630000Y-86260000D01*
X190630000Y-91560000D01*
X184610000Y-91560000D01*
X184610000Y-86260000D01*
%TO.C,J3*%
X184610000Y-101920000D02*
X185610000Y-101920000D01*
X184610000Y-102170000D02*
X185610000Y-102170000D01*
X184610000Y-104210000D02*
X185610000Y-104210000D01*
X185610000Y-101920000D02*
X185610000Y-104460000D01*
X185610000Y-101920000D02*
X186140000Y-102170000D01*
X185610000Y-104460000D02*
X184610000Y-104460000D01*
X186140000Y-102170000D02*
X186140000Y-104210000D01*
X186140000Y-104210000D02*
X185610000Y-104460000D01*
X189600000Y-100250000D02*
X185600000Y-100250000D01*
X190030000Y-101120000D02*
X190030000Y-102720000D01*
X190030000Y-102720000D02*
X190630000Y-102720000D01*
X190030000Y-103660000D02*
X190030000Y-105260000D01*
X190030000Y-105260000D02*
X190630000Y-105260000D01*
X190630000Y-101120000D02*
X190030000Y-101120000D01*
X190630000Y-103660000D02*
X190030000Y-103660000D01*
X184610000Y-100540000D02*
X190630000Y-100540000D01*
X190630000Y-105840000D01*
X184610000Y-105840000D01*
X184610000Y-100540000D01*
%TO.C,C2*%
X173863748Y-82490000D02*
X174386252Y-82490000D01*
X173863748Y-83960000D02*
X174386252Y-83960000D01*
%TO.C,J2*%
X184610000Y-94780000D02*
X185610000Y-94780000D01*
X184610000Y-95030000D02*
X185610000Y-95030000D01*
X184610000Y-97070000D02*
X185610000Y-97070000D01*
X185610000Y-94780000D02*
X185610000Y-97320000D01*
X185610000Y-94780000D02*
X186140000Y-95030000D01*
X185610000Y-97320000D02*
X184610000Y-97320000D01*
X186140000Y-95030000D02*
X186140000Y-97070000D01*
X186140000Y-97070000D02*
X185610000Y-97320000D01*
X189600000Y-93110000D02*
X185600000Y-93110000D01*
X190030000Y-93980000D02*
X190030000Y-95580000D01*
X190030000Y-95580000D02*
X190630000Y-95580000D01*
X190030000Y-96520000D02*
X190030000Y-98120000D01*
X190030000Y-98120000D02*
X190630000Y-98120000D01*
X190630000Y-93980000D02*
X190030000Y-93980000D01*
X190630000Y-96520000D02*
X190030000Y-96520000D01*
X184610000Y-93400000D02*
X190630000Y-93400000D01*
X190630000Y-98700000D01*
X184610000Y-98700000D01*
X184610000Y-93400000D01*
%TO.C,R1*%
X176439564Y-89165000D02*
X175985436Y-89165000D01*
X176439564Y-90635000D02*
X175985436Y-90635000D01*
%TO.C,R4*%
X181864564Y-110865000D02*
X181410436Y-110865000D01*
X181864564Y-112335000D02*
X181410436Y-112335000D01*
%TO.C,Q1*%
D14*
X164050000Y-75355000D02*
X165450000Y-75355000D01*
X165450000Y-75355000D02*
X165450000Y-76275000D01*
X165450000Y-77535000D02*
X165450000Y-78455000D01*
X165450000Y-78455000D02*
X164050000Y-78455000D01*
D15*
X163310000Y-75155000D02*
G75*
G02*
X163110000Y-75155000I-100000J0D01*
G01*
X163110000Y-75155000D02*
G75*
G02*
X163310000Y-75155000I100000J0D01*
G01*
%TO.C,C5*%
D13*
X168263748Y-81965000D02*
X168786252Y-81965000D01*
X168263748Y-83435000D02*
X168786252Y-83435000D01*
%TO.C,J4*%
X184610000Y-109060000D02*
X185610000Y-109060000D01*
X184610000Y-109310000D02*
X185610000Y-109310000D01*
X184610000Y-111350000D02*
X185610000Y-111350000D01*
X185610000Y-109060000D02*
X185610000Y-111600000D01*
X185610000Y-109060000D02*
X186140000Y-109310000D01*
X185610000Y-111600000D02*
X184610000Y-111600000D01*
X186140000Y-109310000D02*
X186140000Y-111350000D01*
X186140000Y-111350000D02*
X185610000Y-111600000D01*
X189600000Y-107390000D02*
X185600000Y-107390000D01*
X190030000Y-108260000D02*
X190030000Y-109860000D01*
X190030000Y-109860000D02*
X190630000Y-109860000D01*
X190030000Y-110800000D02*
X190030000Y-112400000D01*
X190030000Y-112400000D02*
X190630000Y-112400000D01*
X190630000Y-108260000D02*
X190030000Y-108260000D01*
X190630000Y-110800000D02*
X190030000Y-110800000D01*
X184610000Y-107680000D02*
X190630000Y-107680000D01*
X190630000Y-112980000D01*
X184610000Y-112980000D01*
X184610000Y-107680000D01*
%TO.C,R3*%
X181864564Y-103725000D02*
X181410436Y-103725000D01*
X181864564Y-105195000D02*
X181410436Y-105195000D01*
%TO.C,U2*%
D16*
X170599001Y-86031450D02*
X170599001Y-88038050D01*
X173901001Y-88038050D02*
X173901001Y-86031450D01*
%TO.C,L1*%
D13*
X168887122Y-85090000D02*
X168087878Y-85090000D01*
X168887122Y-86210000D02*
X168087878Y-86210000D01*
%TO.C,U1*%
D16*
X168753250Y-108888900D02*
X172995050Y-108888900D01*
X172995050Y-103631100D02*
X168753250Y-103631100D01*
%TO.C,R2*%
D13*
X175985436Y-87165000D02*
X176439564Y-87165000D01*
X175985436Y-88635000D02*
X176439564Y-88635000D01*
%TO.C,C3*%
X167190000Y-88588748D02*
X167190000Y-89111252D01*
X168660000Y-88588748D02*
X168660000Y-89111252D01*
%TO.C,A1*%
X139585000Y-76295000D02*
X139585000Y-74695000D01*
X139905000Y-74625000D02*
X139905000Y-124625000D01*
X140245000Y-74078000D02*
X140245000Y-125172000D01*
X140515000Y-74015000D02*
X143005000Y-74015000D01*
X140515000Y-125235000D02*
X144352939Y-125235000D01*
X143005000Y-74015000D02*
X143005000Y-74928520D01*
X143005000Y-74015000D02*
X144352940Y-74015000D01*
X143005000Y-77321480D02*
X143005000Y-121928520D01*
X143005000Y-124321480D02*
X143005000Y-125235000D01*
X145277061Y-74015000D02*
X146280000Y-74015000D01*
X146280000Y-74015000D02*
X154750000Y-74015000D01*
X146405000Y-72715000D02*
X146405000Y-73535000D01*
X146405000Y-72715000D02*
X154625000Y-72715000D01*
X146405000Y-73535000D02*
X146615000Y-73535000D01*
X146615000Y-73535000D02*
X146615000Y-74931000D01*
X146615000Y-77319000D02*
X146615000Y-78535000D01*
X146915000Y-125235000D02*
X145277061Y-125235000D01*
X154115000Y-125235000D02*
X146915000Y-125235000D01*
X154415000Y-73535000D02*
X154415000Y-74931000D01*
X154415000Y-77319000D02*
X154415000Y-78535000D01*
X154415000Y-78535000D02*
X146615000Y-78535000D01*
X154625000Y-72715000D02*
X154625000Y-73535000D01*
X154625000Y-73535000D02*
X154415000Y-73535000D01*
X154750000Y-74015000D02*
X155752939Y-74015000D01*
X155752939Y-125235000D02*
X154115000Y-125235000D01*
X156677061Y-74015000D02*
X158025000Y-74015000D01*
X156677061Y-125235000D02*
X160515000Y-125235000D01*
X158025000Y-74015000D02*
X158025000Y-74928520D01*
X158025000Y-77321480D02*
X158025000Y-121928520D01*
X158025000Y-124321480D02*
X158025000Y-125235000D01*
X160515000Y-74015000D02*
X158025000Y-74015000D01*
X160785000Y-125172000D02*
X160785000Y-74078000D01*
X161125000Y-74625000D02*
X161125000Y-124625000D01*
X139905000Y-74625000D02*
G75*
G02*
X140515000Y-74015000I610000J0D01*
G01*
X140515000Y-125235000D02*
G75*
G02*
X139905000Y-124625000I-99J609901D01*
G01*
X160515000Y-74015000D02*
G75*
G02*
X161125000Y-74625000I0J-610000D01*
G01*
X161125000Y-124625000D02*
G75*
G02*
X160515000Y-125235000I-610000J0D01*
G01*
%TD*%
M02*
