M48
; DRILL file KiCad 10.0.5 date 2026-09-09T21:09:42
; FORMAT={-:-/ absolute / metric / decimal}
; #@! TF.CreationDate,2026-09-09T21:09:42-04:00
; #@! TF.GenerationSoftware,Kicad,Pcbnew,10.0.5
; #@! TF.FileFunction,Plated,1,2,PTH
FMAT,2
METRIC
; #@! TA.AperFunction,Plated,PTH,ViaDrill
T1C0.300
; #@! TA.AperFunction,Plated,PTH,ComponentDrill
T2C0.500
; #@! TA.AperFunction,Plated,PTH,ComponentDrill
T3C1.000
; #@! TA.AperFunction,Plated,PTH,ComponentDrill
T4C1.190
; #@! TA.AperFunction,Plated,PTH,ComponentDrill
T5C3.200
%
G90
G05
T1
X166.0Y-108.125
X166.025Y-105.65
X167.425Y-77.05
X167.425Y-77.85
X167.425Y-78.65
X173.6Y-103.05
X177.175Y-91.4
T2
X130.193Y-78.382
X130.193Y-120.493
X130.896Y-76.685
X130.896Y-80.079
X130.896Y-118.796
X130.896Y-122.19
X132.593Y-75.982
X132.593Y-80.782
X132.593Y-118.093
X132.593Y-122.893
X134.29Y-76.685
X134.29Y-80.079
X134.29Y-118.796
X134.29Y-122.19
X134.993Y-78.382
X134.993Y-120.493
X187.43Y-78.382
X187.43Y-120.493
X188.133Y-76.685
X188.133Y-80.079
X188.133Y-118.796
X188.133Y-122.19
X189.83Y-75.982
X189.83Y-80.782
X189.83Y-118.093
X189.83Y-122.893
X191.527Y-76.685
X191.527Y-80.079
X191.527Y-118.796
X191.527Y-122.19
X192.23Y-78.382
X192.23Y-120.493
T3
X141.625Y-75.495
X141.625Y-78.035
X141.625Y-80.575
X141.625Y-83.115
X141.625Y-85.655
X141.625Y-88.195
X141.625Y-90.735
X141.625Y-93.275
X141.625Y-95.815
X141.625Y-98.355
X141.625Y-100.895
X141.625Y-103.435
X141.625Y-105.975
X141.625Y-108.515
X141.625Y-111.055
X141.625Y-113.595
X141.625Y-116.135
X141.625Y-118.675
X141.625Y-121.215
X141.625Y-123.755
X159.405Y-75.495
X159.405Y-78.035
X159.405Y-80.575
X159.405Y-83.115
X159.405Y-85.655
X159.405Y-88.195
X159.405Y-90.735
X159.405Y-93.275
X159.405Y-95.815
X159.405Y-98.355
X159.405Y-100.895
X159.405Y-103.435
X159.405Y-105.975
X159.405Y-108.515
X159.405Y-111.055
X159.405Y-113.595
X159.405Y-116.135
X159.405Y-118.675
X159.405Y-121.215
X159.405Y-123.755
T4
X187.6Y-87.64
X187.6Y-90.18
X187.6Y-94.78
X187.6Y-97.32
X187.6Y-101.92
X187.6Y-104.46
X187.6Y-109.06
X187.6Y-111.6
T5
X132.593Y-78.382
X132.593Y-120.493
X189.83Y-78.382
X189.83Y-120.493
M30
